<svg width="526" height="259" viewBox="0 0 526 259" fill="none" xmlns="http://www.w3.org/2000/svg">
<path d="M198.213 146.238C196.64 142.013 197.974 141.504 196.401 137.279C194.828 133.054 194.588 133.189 191.817 129.638C189.36 126.507 188.881 129.803 184.536 129.803C181.945 129.803 179.024 128.26 176.507 128.485C172.358 128.844 168.103 130.657 168.553 132.14C169.077 133.878 170.95 136.335 170.455 139.691C170.126 141.953 167.804 144.08 166.89 146.867C166.141 149.159 165.332 151.511 164.134 154.058C162.636 157.249 162.426 160.724 160.598 161.983C156.584 164.754 155.52 160.65 151.85 162.657C151.835 162.717 151.82 162.762 151.805 162.822C150.187 162.882 148.525 163.151 146.802 163.421C144.944 163.721 144.824 164.44 143.821 162.852C141.454 159.106 143.237 158.852 142.518 154.492C141.799 150.133 140.016 150.417 139.297 146.058C138.578 141.698 138.623 141.683 137.919 137.324C137.2 132.964 138.952 132.68 138.233 128.32C137.514 123.961 135.762 124.245 135.043 119.886C134.473 116.425 133.47 113.534 131.268 111.152C129.036 108.74 126.129 107.541 122.879 106.522C119.793 105.549 116.752 105.009 113.336 105.564C109.831 106.133 106.61 106.912 104.034 108.74C101.218 110.732 99.6747 113.639 98.3715 116.65C97.0682 119.631 95.7799 122.732 96.3492 126.223C97.0682 130.582 97.937 130.447 98.6411 134.807C99.3602 139.167 99.2403 139.181 99.9594 143.556C100.678 147.916 100.933 147.871 101.637 152.23C102.356 156.59 101.472 156.724 102.191 161.084C102.91 165.444 106.311 166.267 103.704 169.818C101.023 173.458 99.4051 171.721 94.956 172.455C90.507 173.189 90.1325 170.942 85.6834 171.661C81.2344 172.395 81.3242 172.964 76.8752 173.683C72.4261 174.417 72.6508 175.556 68.2167 174.732C68.9657 171.766 69.4601 169.698 70.1791 166.822C70.9281 163.856 71.2876 160.844 72.0217 157.953C72.7707 155.002 73.5346 152.08 74.2687 149.189C75.0177 146.238 75.8266 143.346 76.5756 140.44C77.3246 137.504 79.4218 134.927 80.1708 132.035C80.9198 129.114 79.6315 125.668 80.3805 122.762C81.1295 119.841 81.8785 116.919 82.6275 114.013C83.3765 111.107 84.9794 108.41 85.7284 105.474C86.4774 102.567 88.0652 99.8708 88.8142 96.9345C89.5483 94.0432 90.2523 91.1069 91.0163 88.1556C91.7503 85.2642 90.9564 81.9533 91.7054 79.0021C92.4394 76.1107 94.941 73.6388 95.69 70.6725C96.4241 67.7961 95.4803 64.4403 96.2293 61.4741C96.9484 58.7175 98.7609 56.755 98.4763 55.0322C97.9221 51.6913 94.8661 49.0397 92.5592 46.5828C90.2823 44.1708 87.6308 41.8937 84.485 40.7551C81.2943 39.5865 77.8639 39.9461 74.6132 40.4854C70.9281 41.0847 66.9135 41.7139 64.0972 44.1408C61.251 46.5828 59.753 50.3281 58.8842 53.9984C57.7607 58.5078 57.3113 58.4029 56.1878 62.9122C55.0493 67.4216 55.3489 67.4965 54.2104 72.0058C53.072 76.5152 52.1881 76.2905 51.0497 80.7998C49.9112 85.3091 49.5666 85.2193 48.4431 89.7286C47.3047 94.2379 47.5144 94.2979 46.3759 98.7922C45.2374 103.302 45.522 103.361 44.3836 107.871C43.2451 112.38 42.7208 112.245 41.5823 116.755C40.4438 121.264 40.5037 121.279 39.3652 125.788C38.2268 130.298 38.3466 130.313 37.2081 134.822C36.0697 139.331 36.1446 139.346 35.0061 143.856C33.8676 148.365 33.6429 148.305 32.5044 152.814C31.3659 157.324 32.789 157.683 31.6506 162.178C30.5121 166.687 30.6619 166.717 29.5234 171.226C28.3849 175.736 28.2201 175.691 27.0817 180.2C25.9432 184.709 26.1379 184.754 24.9845 189.249C23.8759 193.234 23.5763 198.402 23.7561 199.541C24.3403 203.076 25.4488 206.462 27.7108 209.114C29.9578 211.735 33.3882 212.559 36.8187 213.728C39.9495 214.792 43.1852 216.889 46.9302 216.275C51.4092 215.541 51.2893 214.851 55.7833 214.117C60.2623 213.383 60.3822 214.072 64.8612 213.338C69.3402 212.604 69.2653 212.185 73.7444 211.451C78.2234 210.717 78.0886 209.923 82.5676 209.189C87.0466 208.455 87.1664 209.204 91.6455 208.469C96.1245 207.735 96.2144 208.32 100.693 207.586C105.172 206.852 106.296 201.998 110.161 204.38C113.516 206.462 108.962 209.488 109.591 213.383C110.221 217.278 112.483 216.904 113.112 220.814C113.756 224.709 112.617 224.889 113.262 228.784C113.831 232.275 114.655 235.99 116.842 238.402C119.044 240.844 122.489 242.731 125.785 243.72C128.826 244.634 132.556 244.784 136.061 244.215C139.566 243.645 142.847 241.997 145.439 240.17C148.255 238.177 149.318 234.806 150.637 231.795C151.94 228.814 151.97 226.042 151.401 222.552C150.757 218.657 151.206 218.582 150.996 214.567C150.772 210.627 150.367 210.717 149.738 206.822C149.094 202.926 148.764 203.061 149.858 199.271C150.382 197.473 150.861 199.75 152.719 199.451C156.164 198.882 158.546 195.81 161.048 193.938C163.744 191.915 166.276 189.938 167.534 186.942C168.777 183.975 169.302 180.664 168.748 177.279C168.523 175.87 168.133 174.477 167.609 173.144C167.939 172.739 168.268 172.335 168.598 171.915C170.575 169.443 173.197 167.406 175.758 165.518C178.365 163.601 181.421 162.447 184.177 161.069C187.263 159.526 189.779 156.994 192.446 156.065C197.734 154.208 201.494 159.196 201.868 154.447C202.183 149.983 199.771 150.462 198.213 146.238Z" fill="#435375"/>
<path d="M523.459 182.118C520.882 177.863 516.733 174.552 511.265 172.889C509.318 172.305 507.026 173.458 507.116 171.436C507.475 163.481 510.052 163.915 512.359 156.305C514.681 148.695 514.726 148.71 517.047 141.099C519.369 133.489 518.545 133.234 520.867 125.638C522.53 120.17 522.935 114.223 520.073 109.669C517.317 105.264 512.149 101.594 506.726 99.9457C501.064 98.2229 494.952 98.7323 490.323 100.8C485.41 102.987 481.05 107.466 479.373 112.994C477.051 120.605 478.639 121.084 476.317 128.695C474.01 136.305 472.632 135.886 470.325 143.511C468.003 151.121 473.306 155.047 465.951 158.058C456.933 161.758 456.963 156.05 447.645 153.219C438.327 150.387 437.339 152.62 429.399 146.972C433.414 142.238 436.14 137.549 439.96 133.054C443.96 128.365 449.218 124.919 453.083 120.41C457.067 115.766 459.479 109.908 463.374 105.354C467.314 100.755 471.718 96.5899 475.658 91.9907C479.567 87.4364 484.9 84.0657 488.87 79.4215C492.735 74.9122 494.847 68.7849 498.862 64.0808C502.697 59.5864 508.029 56.2157 512.044 51.4816C514.051 49.1595 513.991 46.5528 514.531 44.755C516.119 39.5266 514.905 34.0435 512.089 29.3244C509.288 24.6053 505.003 20.8451 499.94 19.302C492.181 16.935 483.942 19.6016 478.788 25.8638C472.722 33.0697 471.014 31.6165 464.917 38.7925C458.82 45.9685 459.374 46.4479 453.278 53.6239C447.181 60.7999 448.169 61.6388 442.072 68.7998C435.976 75.9758 434.493 74.7174 428.396 81.8934C422.299 89.0694 423.123 89.7585 417.026 96.9345C411.004 104.021 411.513 104.605 405.656 111.526C405.566 111.541 405.476 111.556 405.401 111.571C402.465 112.185 400.323 114.283 398.136 114.867C395.02 115.691 392.234 114.178 390.107 114.208C387.545 114.238 384.849 114.822 382.722 112.305C381.059 110.343 380.61 106.283 378.542 103.272C376.64 100.53 373.374 98.7622 371.202 96.7098C368.446 94.0881 366.169 92.7997 363.143 94.0581C359.787 95.4514 359.068 98.0132 360.461 101.609C361.45 104.155 362.574 107.586 364.671 110.298C366.648 112.86 369 115.436 371.067 117.474C373.674 120.051 376.924 122.043 377.688 125.354C378.422 128.515 377.119 132.155 376.835 135.781C376.58 139.062 375.996 142.432 375.426 145.938C375.367 146.342 375.352 146.762 375.367 147.166C374.902 148.26 374.603 149.114 374.483 149.504C372.79 155.077 374.228 160.41 377.074 165.384C379.711 170.013 383.291 174.103 389.328 175.945C397.537 178.447 397.552 178.387 405.761 180.889C413.97 183.391 413.596 184.634 421.805 187.121C430.014 189.623 430.118 189.234 438.327 191.736C446.537 194.237 452.124 188.035 454.626 196.23C458.356 208.469 451.27 208.395 447.54 220.634C445.862 226.162 447.3 231.286 450.162 235.84C452.858 240.155 456.483 244.604 462.146 246.327C467.793 248.05 473.321 246.417 477.95 244.349C482.863 242.162 483.987 239.436 485.664 233.922C489.394 221.683 486.938 221.997 491.881 215.69C493.139 214.087 497.693 210.402 499.626 210.986C505.153 212.664 510.816 210.672 515.37 208.499C520.148 206.222 523.279 202.252 524.897 196.904C526.47 191.87 526.23 186.702 523.459 182.118Z" fill="#435375"/>
<path d="M113.292 71.3467C115.239 72.9197 116.842 75.3616 116.362 78.3279C115.988 80.68 113.786 82.7024 111.958 84.9646C110.131 87.2118 108.648 89.9084 106.431 90.7623C103.629 91.8559 101.173 90.3129 99.2253 88.7249C97.2779 87.1369 94.8661 85.0095 95.3455 82.0283C95.72 79.6762 97.218 76.7549 99.0455 74.4927C100.873 72.2306 103.629 70.7025 105.846 69.8486C108.648 68.7699 111.344 69.7737 113.292 71.3467Z" fill="#435375"/>
<path d="M468.347 4.09611C469.771 5.24967 470.924 7.01745 470.579 9.15976C470.31 10.8676 468.707 12.3358 467.389 13.9687C466.071 15.6017 464.992 17.5492 463.374 18.1784C461.337 18.9724 459.554 17.8489 458.146 16.6953C456.723 15.5417 454.985 13.9987 455.33 11.8414C455.614 10.1335 456.693 8.02119 458.011 6.37326C459.33 4.74031 461.337 3.61672 462.94 3.00249C464.977 2.22347 466.939 2.95754 468.347 4.09611Z" fill="#435375"/>
<path d="M173.766 199.091C170.92 200.395 168.058 201.743 167.055 204.574C166.066 207.376 166.126 210.851 167.429 213.728C168.553 216.185 170.92 218.372 174.065 219.945C177.376 221.593 180.282 221.069 183.008 220.904C186.169 220.724 189.105 219.825 192.176 219.735C194.903 219.66 198.228 220.26 201.434 222.267C204.729 224.35 206.302 224.559 207.95 223.481C209.808 222.252 212.055 220.065 211.83 216.889C211.65 214.462 209.957 211.81 208.579 209.413C207.171 206.956 204.25 205.024 201.239 202.777C198.692 200.874 196.326 198.103 193.06 196.964C189.974 195.885 186.484 196.709 183.053 196.784C179.848 196.874 177.001 197.608 173.766 199.091Z" fill="#435375"/>
<path d="M414.42 35.6165C411.918 36.83 409.281 38.3132 406.885 40.036C404.578 41.6989 402.855 44.2607 400.743 46.2382C398.616 48.2307 395.949 49.7738 394.152 51.946C392.219 54.2531 391.051 57.0696 389.628 59.3917C387.98 62.0883 386.212 64.5752 385.433 67.0471C384.415 70.313 383.995 73.7436 384.954 76.0208C385.958 78.3728 388.894 80.0058 392.579 80.5751C396.728 81.2043 400.278 80.605 402.63 78.7623C405.042 76.8747 405.447 72.8897 407.124 69.6388C408.577 66.8074 411.528 64.5452 413.251 61.5639C414.899 58.7025 416.697 56.1857 419.258 53.9235C421.58 51.8711 423.602 48.6502 427.212 47.6764C430.673 46.7326 433.804 45.6839 436.755 44.5603C440.23 43.212 444.005 43.242 446.597 41.7139C450.132 39.6315 452.334 36.8 453.862 34.5978C456.049 31.4518 455.809 28.6503 452.798 25.8788C450.746 23.9911 448.319 23.1372 445.278 23.3319C442.792 23.4967 440.035 24.111 437.174 25.1597C434.702 26.0735 431.766 26.508 429.175 27.7814C426.688 28.9948 425.07 32.021 422.629 33.3094C420.037 34.6428 416.786 34.463 414.42 35.6165Z" fill="#435375"/>
<path d="M407.364 209.129C404.563 208.859 401.432 208.844 398.256 208.829C395.23 208.814 392.114 208.769 389.133 209.114C385.957 209.488 382.902 210.252 380.235 211.181C377.044 212.305 375.426 214.851 373.719 216.994C371.951 219.196 371.202 221.069 371.876 224.634C372.625 228.664 374.003 230.132 376.49 231.466C379.052 232.844 381.943 233.024 385.298 233.503C388.369 233.952 391.905 234.477 394.811 235.795C397.462 236.994 399.964 239.66 401.836 242.806C403.409 245.458 405.731 247.54 408.457 249.683C411.034 251.72 413.82 253.113 416.801 254.387C420.067 255.78 422.943 256.859 425.924 256.919C429.609 256.994 432.83 256.799 434.717 254.147C436.23 252.035 436.65 248.904 436.155 244.604C435.751 241.143 435.511 237.848 434.583 234.911C433.549 231.585 431.467 228.979 429.909 226.297C428.171 223.301 427.093 219.99 424.905 217.788C422.449 215.331 419.258 214.012 416.532 212.574C413.431 210.971 410.405 209.428 407.364 209.129Z" fill="#435375"/>
<path d="M347.309 193.204C345.152 195.84 344.268 199.945 342.366 202.672C339.474 206.792 337.183 209.953 339.055 211.541C340.358 212.649 343.549 213.428 349.346 211.885C352.222 211.121 354.964 209.353 357.855 208.23C360.761 207.091 363.383 205.443 366.034 204.08C368.955 202.582 371.981 201.593 374.258 199.975C377.344 197.788 379.082 195.211 380.22 193.234C381.838 190.387 381.883 187.106 377.329 185.788C373.329 184.634 369.554 185.264 366.528 185.099C362.499 184.889 359.038 185.129 356.042 186.702C353.196 188.185 349.886 190.058 347.309 193.204Z" fill="#435375"/>
<path d="M130.968 40.5154C128.646 42.1184 126.803 44.5603 125.83 47.0921C124.856 49.6389 124.302 52.7101 124.616 55.4067C124.931 58.2082 126.189 61.1295 127.792 63.2119C129.44 65.3692 131.972 67.8411 134.863 68.2755C137.424 68.665 140.93 67.3617 143.776 65.6987C146.083 64.3504 147.611 61.3692 149.753 59.152C151.745 57.0996 153.303 54.7026 154.861 52.2756C156.494 49.7288 157.647 47.182 158.516 44.6202C159.58 41.5041 159.715 39.0472 159.145 36.5753C158.411 33.4143 157.093 32.051 154.037 31.9911C151.655 31.9461 148.48 31.5117 145.618 32.5005C142.997 33.4143 141.259 36.6802 138.922 37.8637C135.642 39.5266 132.166 39.6914 130.968 40.5154Z" fill="#435375"/>
<path d="M38.4215 231.256C34.9761 230.357 32.2797 228.335 29.4335 226.896C26.2277 225.278 22.7074 224.649 20.1608 222.866C17.015 220.664 14.8429 217.743 12.4911 216.2C8.7311 213.713 5.25573 212.979 2.78403 215.451C1.39089 216.844 1.63058 220.17 2.4395 224.125C2.94882 226.642 2.64922 229.982 3.87758 232.949C4.95614 235.54 7.65254 237.563 9.1805 240.17C10.6635 242.687 12.2065 245.173 14.019 247.421C15.9215 249.788 17.3596 252.604 19.5467 254.342C21.9734 256.289 24.8646 257.608 27.516 258.372C30.3323 259.181 33.1485 258.312 36.0696 257.278C39.1105 256.2 42.4361 255.51 45.1475 253.668C47.8588 251.84 49.8811 249.083 52.1581 246.821C54.5699 244.424 56.8319 242.042 58.5995 239.54C60.7267 236.529 62.4943 233.683 63.468 231.106C65.1757 226.552 64.7713 224.065 61.7154 223.765C59.004 223.511 56.0979 223.016 53.4164 224.215C50.8099 225.383 48.1585 226.806 45.8515 228.14C42.7057 229.967 40.3689 231.765 38.4215 231.256Z" fill="#435375"/>
<path d="M196.925 144.14C195.352 139.916 196.685 139.406 195.127 135.182C193.554 130.957 193.315 131.092 190.543 127.541C188.087 124.41 187.607 127.706 183.263 127.706C180.672 127.706 177.75 126.163 175.234 126.388C171.084 126.747 166.83 128.56 167.279 130.043C167.804 131.781 169.676 134.238 169.182 137.594C168.852 139.856 166.53 141.983 165.617 144.77C164.868 147.062 164.059 149.429 162.86 151.96C161.362 155.151 161.138 158.627 159.325 159.886C155.31 162.657 154.247 158.552 150.577 160.56C150.562 160.62 150.547 160.665 150.532 160.724C148.914 160.784 147.251 161.054 145.528 161.324C143.671 161.623 143.551 162.342 142.547 160.754C140.181 157.009 141.963 156.754 141.244 152.395C140.525 148.035 138.743 148.32 138.024 143.961C137.304 139.601 137.349 139.586 136.645 135.241C135.926 130.882 137.679 130.597 136.96 126.238C136.241 121.878 134.488 122.163 133.769 117.803C133.2 114.343 132.211 111.451 129.994 109.069C127.762 106.657 124.841 105.459 121.605 104.44C118.52 103.466 115.479 102.927 112.078 103.481C108.573 104.051 105.352 104.83 102.776 106.657C99.9593 108.65 98.4164 111.556 97.1131 114.567C95.8099 117.549 94.5216 120.65 95.0908 124.14C95.8099 128.5 96.6787 128.365 97.3828 132.725C98.1018 137.084 97.982 137.099 98.701 141.474C99.4201 145.833 99.6747 145.788 100.394 150.148C101.113 154.507 100.229 154.642 100.948 159.002C101.667 163.361 105.068 164.185 102.461 167.736C99.7945 171.376 98.1617 169.638 93.7127 170.372C89.2636 171.106 88.8891 168.859 84.44 169.578C79.991 170.312 80.0809 170.882 75.6318 171.601C71.1827 172.335 71.4074 173.473 66.9734 172.649C67.7224 169.683 68.2167 167.616 68.9357 164.739C69.6847 161.773 70.0443 158.762 70.7783 155.871C71.5273 152.919 72.2913 149.998 73.0253 147.107C73.7743 144.155 74.5832 141.264 75.3322 138.373C76.0812 135.436 78.1784 132.859 78.9274 129.968C79.6764 127.047 78.3881 123.601 79.1371 120.695C79.8861 117.773 80.6201 114.852 81.3841 111.931C82.1331 109.024 83.736 106.328 84.485 103.391C85.234 100.485 86.8219 97.7885 87.5709 94.8522C88.3199 91.9608 89.0089 89.0245 89.7729 86.0732C90.5069 83.1818 89.713 79.871 90.462 76.9197C91.196 74.0283 93.6977 71.5564 94.4467 68.6051C95.1807 65.7287 94.237 62.373 94.986 59.4067C95.705 56.6501 97.5176 54.6876 97.233 52.9648C96.6787 49.624 93.6378 46.9723 91.3159 44.5154C89.0389 42.1034 86.3874 39.8263 83.2416 38.6877C80.0509 37.5192 76.6205 37.8787 73.3698 38.418C69.6847 39.0173 65.6701 39.6465 62.8539 42.0735C60.0077 44.5154 58.5097 48.2607 57.6408 51.9461C56.5173 56.4554 56.0679 56.3505 54.9444 60.8599C53.8059 65.3692 54.1055 65.4441 52.9671 69.9535C51.8286 74.4628 50.9448 74.2381 49.8063 78.7474C48.6678 83.2567 48.3382 83.1669 47.1998 87.6762C46.0613 92.1855 46.271 92.2305 45.1475 96.7398C44.009 101.249 44.2936 101.309 43.1552 105.818C42.0167 110.328 41.4924 110.193 40.3539 114.702C39.2154 119.212 39.2753 119.227 38.1369 123.721C36.9984 128.23 37.1182 128.245 35.9797 132.755C34.8413 137.264 34.9162 137.279 33.7777 141.788C32.6392 146.298 32.4145 146.238 31.276 150.747C30.1375 155.256 31.5606 155.616 30.4222 160.11C29.2837 164.62 29.4335 164.65 28.295 169.159C27.1565 173.668 26.9917 173.623 25.8533 178.133C24.7148 182.642 24.9245 182.687 23.7561 187.181C22.6475 191.166 22.3479 196.335 22.5277 197.473C23.1119 201.024 24.2204 204.395 26.4824 207.046C28.7294 209.668 32.1598 210.477 35.5903 211.646C38.7211 212.709 41.9568 214.807 45.7018 214.192C50.1808 213.458 50.0759 212.769 54.5549 212.035C59.034 211.301 59.1538 211.99 63.6328 211.256C68.1118 210.522 68.0369 210.102 72.516 209.368C76.995 208.634 76.8602 207.84 81.3392 207.106C85.8182 206.372 85.9381 207.121 90.4171 206.387C94.8961 205.653 94.986 206.237 99.465 205.503C103.944 204.769 105.068 199.9 108.917 202.297C112.273 204.38 107.719 207.406 108.348 211.301C108.992 215.196 111.239 214.822 111.868 218.717C112.498 222.612 111.374 222.792 112.018 226.687C112.587 230.177 113.411 233.893 115.598 236.305C117.801 238.747 121.246 240.634 124.542 241.638C127.582 242.552 131.312 242.702 134.818 242.132C138.338 241.563 141.604 239.915 144.195 238.087C147.012 236.095 148.075 232.724 149.393 229.713C150.697 226.732 150.727 223.945 150.157 220.469C149.528 216.574 149.963 216.499 149.753 212.499C149.543 208.559 149.139 208.649 148.495 204.754C147.85 200.859 147.521 200.994 148.614 197.204C149.139 195.391 149.618 197.683 151.476 197.383C154.921 196.814 157.303 193.743 159.804 191.87C162.501 189.863 165.032 187.87 166.291 184.874C167.534 181.908 168.058 178.597 167.504 175.211C167.279 173.803 166.89 172.41 166.366 171.076C166.695 170.672 167.025 170.267 167.369 169.848C169.362 167.376 171.968 165.339 174.53 163.451C177.136 161.533 180.192 160.38 182.949 159.002C186.034 157.459 188.551 154.927 191.217 153.998C196.505 152.14 200.265 157.129 200.625 152.38C200.91 147.871 198.498 148.365 196.925 144.14Z" fill="url(#paint0_radial_89_949)"/>
<path d="M522.171 180.005C519.594 175.751 515.43 172.44 509.977 170.777C508.044 170.193 505.738 171.346 505.827 169.324C506.187 161.369 508.764 161.803 511.07 154.193C513.392 146.582 513.437 146.597 515.759 138.987C518.081 131.376 517.257 131.137 519.564 123.526C521.227 118.058 521.631 112.11 518.77 107.556C516.014 103.152 510.846 99.4814 505.423 97.8334C499.761 96.1106 493.649 96.6199 489.02 98.6873C484.106 100.875 479.747 105.354 478.069 110.882C475.748 118.492 477.336 118.972 475.014 126.582C472.692 134.193 471.329 133.773 469.022 141.399C466.7 149.009 472.003 152.934 464.632 155.96C455.614 159.661 455.644 153.953 446.327 151.121C436.994 148.29 436.021 150.522 428.081 144.874C432.096 140.14 434.822 135.451 438.642 130.957C442.642 126.268 447.9 122.822 451.765 118.313C455.749 113.669 458.161 107.811 462.056 103.257C465.996 98.6574 470.4 94.4926 474.339 89.9084C478.249 85.3541 483.582 81.9833 487.567 77.3391C491.432 72.8298 493.544 66.7025 497.558 61.9984C501.393 57.5041 506.726 54.1333 510.741 49.3992C512.748 47.0772 512.688 44.4704 513.228 42.6877C514.815 37.4592 513.602 31.9761 510.786 27.257C507.985 22.538 503.7 18.7777 498.637 17.2346C490.877 14.8676 482.638 17.5343 477.485 23.7964C471.418 31.0023 469.711 29.5492 463.614 36.7251C457.517 43.9011 458.071 44.3805 451.974 51.5565C445.877 58.7325 446.866 59.5715 440.769 66.7325C434.672 73.9085 433.189 72.65 427.093 79.826C420.996 87.002 421.82 87.6911 415.723 94.8671C409.701 101.953 410.195 102.538 404.353 109.459C404.263 109.474 404.173 109.489 404.098 109.504C401.162 110.118 399.02 112.23 396.833 112.8C393.717 113.624 390.931 112.11 388.804 112.14C386.227 112.17 383.546 112.755 381.419 110.238C379.756 108.275 379.306 104.2 377.239 101.204C375.337 98.4626 372.056 96.6948 369.899 94.6424C367.143 92.0207 364.866 90.7323 361.84 91.9907C358.484 93.384 357.765 95.9458 359.158 99.5413C360.147 102.088 361.27 105.519 363.368 108.23C365.345 110.792 367.697 113.369 369.764 115.406C372.371 117.983 375.621 119.976 376.385 123.301C377.119 126.462 375.816 130.103 375.531 133.728C375.277 137.009 374.693 140.38 374.123 143.886C374.063 144.29 374.048 144.71 374.063 145.114C373.599 146.208 373.299 147.062 373.18 147.451C371.487 153.024 372.925 158.357 375.771 163.331C378.408 167.96 381.988 172.065 388.025 173.893C396.234 176.395 396.249 176.335 404.458 178.837C412.667 181.339 412.292 182.582 420.501 185.069C428.71 187.571 428.815 187.181 437.024 189.683C445.233 192.185 450.821 185.983 453.323 194.177C457.053 206.417 449.967 206.342 446.237 218.582C444.559 224.11 445.997 229.233 448.858 233.788C451.555 238.087 455.18 242.552 460.842 244.275C466.49 245.997 472.018 244.364 476.661 242.282C481.575 240.095 482.698 237.368 484.376 231.855C488.106 219.616 485.649 219.93 490.593 213.623C491.836 212.02 496.405 208.335 498.337 208.919C503.865 210.597 509.527 208.604 514.081 206.432C518.86 204.155 521.991 200.185 523.609 194.822C525.197 189.758 524.957 184.604 522.171 180.005Z" fill="url(#paint1_radial_89_949)"/>
<path d="M112.018 69.2493C113.966 70.8373 115.568 73.2643 115.089 76.2306C114.715 78.5826 112.513 80.6051 110.685 82.8672C108.857 85.1294 107.374 87.811 105.157 88.6649C102.356 89.7586 99.8994 88.2155 97.952 86.6275C96.0046 85.0395 93.5928 82.9122 94.0722 79.9309C94.4467 77.5789 95.9447 74.6575 97.7722 72.3954C99.5998 70.1482 102.356 68.6051 104.573 67.7512C107.374 66.6726 110.071 67.6613 112.018 69.2493Z" fill="url(#paint2_radial_89_949)"/>
<path d="M467.074 1.99876C468.497 3.13733 469.651 4.9051 469.306 7.06239C469.037 8.77024 467.434 10.2384 466.115 11.8714C464.797 13.5043 463.719 15.4519 462.101 16.0811C460.064 16.8751 458.281 15.7515 456.873 14.5979C455.45 13.4444 453.712 11.9013 454.057 9.74403C454.326 8.03618 455.42 5.92382 456.738 4.27589C458.056 2.64294 460.064 1.51935 461.666 0.905119C463.704 0.126097 465.651 0.84521 467.074 1.99876Z" fill="url(#paint3_radial_89_949)"/>
<path d="M172.492 196.979C169.646 198.282 166.785 199.631 165.781 202.462C164.808 205.264 164.853 208.739 166.156 211.616C167.279 214.087 169.646 216.26 172.792 217.833C176.103 219.481 179.009 218.956 181.735 218.792C184.896 218.612 187.832 217.713 190.903 217.623C193.629 217.548 196.955 218.147 200.161 220.155C203.456 222.237 205.029 222.447 206.677 221.368C208.534 220.14 210.781 217.953 210.542 214.777C210.362 212.35 208.669 209.698 207.291 207.286C205.883 204.829 202.962 202.896 199.951 200.649C197.404 198.747 195.037 195.975 191.772 194.837C188.686 193.758 185.195 194.582 181.765 194.657C178.574 194.777 175.728 195.511 172.492 196.979Z" fill="url(#paint4_radial_89_949)"/>
<path d="M413.146 33.5192C410.645 34.7327 408.008 36.2158 405.611 37.9386C403.304 39.6015 401.582 42.1483 399.484 44.1408C397.357 46.1333 394.691 47.6764 392.878 49.8487C390.961 52.1558 389.777 54.9722 388.354 57.2943C386.707 59.9909 384.939 62.4778 384.16 64.9497C383.141 68.2156 382.722 71.6463 383.681 73.9235C384.684 76.2755 387.62 77.9234 391.305 78.4777C395.455 79.107 398.99 78.5227 401.357 76.665C403.769 74.7774 404.173 70.7924 405.851 67.5415C407.304 64.71 410.255 62.4479 411.963 59.4666C413.611 56.6052 415.408 54.0884 417.955 51.8412C420.277 49.7887 422.299 46.5678 425.909 45.594C429.37 44.6502 432.5 43.6015 435.451 42.463C438.927 41.1146 442.702 41.1446 445.293 39.6165C448.829 37.5342 451.031 34.7027 452.559 32.5005C454.746 29.3544 454.506 26.5529 451.495 23.7664C449.443 21.8788 447.031 21.0249 443.975 21.2196C441.488 21.3844 438.732 21.9987 435.871 23.0474C433.399 23.9612 430.463 24.3957 427.872 25.6691C425.385 26.8825 423.767 29.9087 421.325 31.1971C418.764 32.5304 415.498 32.3656 413.146 33.5192Z" fill="url(#paint5_radial_89_949)"/>
<path d="M406.076 207.016C403.274 206.732 400.144 206.732 396.968 206.717C393.942 206.702 390.811 206.657 387.86 207.016C384.684 207.391 381.613 208.155 378.962 209.084C375.771 210.207 374.153 212.754 372.446 214.896C370.693 217.099 369.929 218.971 370.603 222.537C371.352 226.567 372.73 228.035 375.217 229.368C377.778 230.747 380.67 230.926 384.025 231.421C387.096 231.87 390.646 232.394 393.537 233.713C396.189 234.911 398.69 237.578 400.563 240.724C402.121 243.376 404.458 245.458 407.184 247.6C409.761 249.638 412.547 251.046 415.528 252.304C418.794 253.683 421.67 254.776 424.651 254.836C428.336 254.911 431.557 254.716 433.444 252.065C434.972 249.952 435.377 246.821 434.882 242.522C434.478 239.061 434.238 235.765 433.309 232.814C432.276 229.488 430.193 226.881 428.635 224.2C426.898 221.203 425.819 217.893 423.632 215.69C421.175 213.233 417.985 211.915 415.258 210.477C412.157 208.874 409.132 207.316 406.076 207.016Z" fill="url(#paint6_radial_89_949)"/>
<path d="M346.021 191.106C343.864 193.743 342.98 197.848 341.077 200.574C338.186 204.694 335.894 207.855 337.767 209.443C339.085 210.552 342.261 211.331 348.058 209.788C350.949 209.024 353.676 207.256 356.567 206.132C359.473 204.994 362.094 203.346 364.746 201.983C367.667 200.47 370.693 199.481 372.97 197.878C376.056 195.691 377.793 193.114 378.932 191.136C380.55 188.29 380.595 185.009 376.026 183.691C372.026 182.537 368.251 183.166 365.225 183.001C361.196 182.792 357.735 183.031 354.739 184.604C351.908 186.088 348.612 187.945 346.021 191.106Z" fill="url(#paint7_radial_89_949)"/>
<path d="M129.68 38.418C127.358 40.021 125.515 42.4629 124.542 44.9947C123.568 47.5415 123.014 50.6127 123.313 53.3093C123.628 56.1108 124.886 59.0321 126.489 61.1145C128.137 63.2718 130.668 65.7437 133.559 66.1781C136.121 66.5677 139.626 65.2643 142.473 63.6014C144.78 62.2531 146.307 59.2718 148.45 57.0696C150.442 55.0172 152 52.6202 153.558 50.1932C155.206 47.6464 156.344 45.0996 157.228 42.5378C158.276 39.4217 158.426 36.9648 157.857 34.4929C157.123 31.3319 155.805 29.9686 152.749 29.9087C150.367 29.8637 147.191 29.4293 144.33 30.4181C141.709 31.3169 139.971 34.5978 137.634 35.7813C134.368 37.4143 130.878 37.594 129.68 38.418Z" fill="url(#paint8_radial_89_949)"/>
<path d="M37.1332 229.158C33.6878 228.26 30.9914 226.237 28.1452 224.799C24.9395 223.181 21.4192 222.552 18.8576 220.769C15.7118 218.567 13.5397 215.645 11.1728 214.102C7.41285 211.631 3.9375 210.881 1.4658 213.353C0.0726602 214.747 0.312335 218.072 1.12126 222.027C1.63058 224.544 1.33097 227.885 2.55933 230.851C3.63789 233.428 6.3343 235.466 7.86226 238.072C9.34527 240.589 10.8882 243.076 12.7008 245.323C14.6033 247.69 16.0413 250.507 18.2284 252.245C20.6552 254.192 23.5463 255.51 26.1978 256.274C29.014 257.083 31.8452 256.215 34.7514 255.181C37.7923 254.102 41.1179 253.413 43.8442 251.585C46.5706 249.758 48.5779 247.001 50.8549 244.739C53.2666 242.342 55.5136 239.96 57.2963 237.458C59.4234 234.447 61.1911 231.6 62.1648 229.024C63.8725 224.469 63.483 221.983 60.4121 221.683C57.7007 221.428 54.7946 220.934 52.1132 222.132C49.5067 223.301 46.8552 224.724 44.5483 226.057C41.4324 227.87 39.0956 229.668 37.1332 229.158Z" fill="url(#paint9_radial_89_949)"/>
<path d="M356.192 123.182C356.192 127.571 357.166 131.901 356.552 136.035C355.908 140.35 356.072 144.949 354.799 148.949C353.496 153.069 351.399 157.099 349.496 160.874C347.564 164.709 344.553 168.05 342.051 171.481C339.534 174.942 336.059 177.578 333.033 180.604C330.022 183.616 328.09 188.035 324.614 190.597C321.199 193.114 316.255 193.383 312.451 195.436C308.736 197.443 305.844 201.593 301.8 203.121C297.845 204.604 293.231 204.634 289.022 205.638C284.917 206.612 280.798 208.604 276.484 209.084C272.304 209.563 267.84 208.365 263.496 208.365C259.107 208.365 254.882 206.851 250.643 206.447C246.269 206.027 241.805 206.792 237.64 205.938C233.326 205.054 228.787 204.889 224.758 203.541C220.593 202.147 216.968 199.316 213.163 197.413C209.253 195.466 206.018 192.529 202.527 190.058C198.977 187.541 195.921 184.694 192.88 181.623C189.854 178.567 186.783 175.661 184.312 172.065C181.915 168.575 180.372 164.62 178.559 160.605C176.822 156.769 172.747 153.593 171.579 149.294C170.485 145.264 171.788 140.515 171.249 136.065C170.74 131.931 168.373 127.676 168.373 123.182C168.373 118.717 168.673 114.088 169.317 109.803C169.961 105.414 173.691 101.699 174.964 97.5487C176.252 93.3241 178.05 89.5038 179.923 85.5638C181.81 81.5788 181.361 76.2455 183.802 72.605C186.244 68.9496 189.045 65.2493 191.981 61.9834C194.917 58.7325 198.273 55.5265 201.658 52.71C205.014 49.9086 208.804 47.2269 212.564 44.9198C216.279 42.6127 220.983 41.8637 225.027 40.0809C229.012 38.3281 233.191 36.9049 237.446 35.7064C241.64 34.5229 245.76 32.2757 250.164 31.6765C254.463 31.0922 259.032 31.3319 263.496 31.3319C267.96 31.3319 272.169 33.7289 276.469 34.3131C280.873 34.9124 285.532 33.9236 289.711 35.1071C293.98 36.3056 298.354 37.4742 302.354 39.227C306.399 41.0097 310.428 43.1371 314.128 45.4292C317.888 47.7513 319.866 52.4554 323.236 55.2569C326.622 58.0733 331.79 59.0171 334.726 62.268C337.662 65.5339 337.947 70.8523 340.388 74.5077C342.83 78.1481 346.875 80.7998 348.762 84.7698C350.635 88.7098 352.717 92.7398 354.005 96.9645C355.278 101.129 356.222 105.564 356.866 109.953C357.495 114.223 356.192 118.717 356.192 123.182Z" fill="#435375"/>
<path d="M354.38 121.369C354.38 125.758 355.353 130.088 354.739 134.223C354.095 138.522 354.26 143.136 352.986 147.136C351.683 151.256 349.586 155.286 347.684 159.062C345.751 162.897 342.74 166.238 340.239 169.668C337.722 173.129 334.247 175.766 331.221 178.792C328.21 181.788 326.277 186.222 322.802 188.769C319.386 191.286 314.443 191.571 310.638 193.608C306.923 195.616 304.032 199.765 299.987 201.293C296.033 202.777 291.419 202.807 287.209 203.81C283.105 204.784 278.985 206.762 274.671 207.256C270.492 207.735 266.028 206.522 261.683 206.522C257.294 206.522 253.07 205.024 248.831 204.604C244.456 204.185 239.992 204.949 235.828 204.11C231.514 203.226 226.975 203.061 222.945 201.713C218.781 200.32 215.156 197.488 211.351 195.586C207.441 193.638 204.205 190.702 200.715 188.23C197.18 185.713 194.109 182.867 191.068 179.795C188.042 176.739 184.971 173.833 182.499 170.237C180.102 166.732 178.559 162.792 176.732 158.777C174.994 154.942 170.92 151.766 169.751 147.466C168.658 143.436 169.961 138.687 169.422 134.238C168.912 130.103 166.545 125.848 166.545 121.354C166.545 116.889 166.845 112.26 167.489 107.976C168.133 103.586 171.863 99.8708 173.137 95.7211C174.425 91.4964 176.223 87.6762 178.095 83.7211C179.982 79.7361 179.533 74.4028 181.975 70.7624C184.417 67.107 187.218 63.4066 190.154 60.1407C193.09 56.8898 196.445 53.6838 199.831 50.8674C203.186 48.0659 206.976 45.3992 210.736 43.0622C214.451 40.77 219.155 40.006 223.2 38.2232C227.184 36.4704 231.364 35.0472 235.633 33.8487C239.813 32.6652 243.947 30.418 248.351 29.8188C252.65 29.2345 257.219 29.4742 261.683 29.4742C266.147 29.4742 270.357 31.8712 274.656 32.4555C279.06 33.0547 283.719 32.066 287.898 33.2345C292.168 34.433 296.542 35.6015 300.542 37.3543C304.586 39.1371 308.601 41.2644 312.316 43.5565C316.061 45.8786 318.053 50.5827 321.424 53.3842C324.809 56.2007 329.977 57.1445 332.913 60.3954C335.849 63.6613 336.134 68.9796 338.576 72.635C341.017 76.2755 345.062 78.9271 346.95 82.8972C348.822 86.8372 350.904 90.8671 352.193 95.0918C353.466 99.2566 354.41 103.691 355.054 108.081C355.683 112.41 354.38 116.919 354.38 121.369Z" fill="url(#paint10_radial_89_949)"/>
<path d="M306.623 127.901C304.976 147.856 288.573 158.253 268.484 164.515C249.669 170.372 233.686 147.736 233.686 128.02C233.686 108.305 247.198 91.1368 269.368 94.3578C288.872 97.1892 308.256 108.26 306.623 127.901Z" fill="#EDD9AA"/>
<path d="M304.601 126.567C302.953 146.522 286.55 156.919 266.462 163.181C247.647 169.039 231.648 146.402 231.648 126.687C231.648 106.972 245.16 89.8035 267.346 93.0244C286.85 95.8559 306.219 106.927 304.601 126.567Z" fill="url(#paint11_radial_89_949)"/>
<path d="M283.03 97.2491C290.745 102.882 295.688 110.837 294.834 121.159C293.186 141.114 276.783 151.526 256.695 157.773C252.785 158.987 249.01 158.957 245.475 157.998C251.362 163.121 258.672 165.593 266.462 163.166C286.55 156.919 302.953 146.507 304.601 126.552C305.77 112.35 295.943 102.627 283.03 97.2491Z" fill="url(#paint12_linear_89_949)"/>
<path d="M240.157 132.994C238.764 132.994 237.566 131.946 237.416 130.537C237.341 129.833 237.281 129.144 237.236 128.47C237.146 126.957 238.3 125.638 239.828 125.549C241.355 125.489 242.659 126.612 242.749 128.14C242.794 128.725 242.839 129.339 242.898 129.938C243.063 131.451 241.97 132.814 240.457 132.979C240.352 132.979 240.262 132.994 240.157 132.994ZM243.183 120.695C245.22 109.908 252.935 104.785 255.527 104.14C257.01 103.766 257.908 102.268 257.534 100.8C257.159 99.3315 255.676 98.4177 254.193 98.7922C248.756 100.155 240.067 107.526 237.775 119.676C237.491 121.174 238.479 122.612 239.977 122.897C240.142 122.927 240.322 122.957 240.487 122.957C241.79 122.942 242.943 122.013 243.183 120.695Z" fill="url(#paint13_radial_89_949)"/>
<path d="M186.499 91.8859C185.166 93.0994 183.368 93.2791 182.484 92.2904C181.585 91.3016 181.945 89.5338 183.278 88.3204C184.596 87.1069 186.409 86.9271 187.293 87.9159C188.177 88.9046 187.832 90.6724 186.499 91.8859Z" fill="#EDD9AA"/>
<path d="M192.341 84.9945C190.528 86.6424 188.072 86.8971 186.843 85.5638C185.63 84.2155 186.094 81.7885 187.922 80.1406C189.734 78.4927 192.206 78.238 193.419 79.5713C194.633 80.9196 194.154 83.3466 192.341 84.9945Z" fill="#EDD9AA"/>
<path d="M184.057 86.3428C183.323 87.002 182.334 87.1069 181.84 86.5675C181.346 86.0282 181.54 85.0544 182.274 84.3803C182.993 83.7211 183.982 83.6163 184.476 84.1556C184.971 84.7099 184.791 85.6837 184.057 86.3428Z" fill="#EDD9AA"/>
<path d="M316.24 65.8486C314.698 64.2306 314.428 61.9834 315.626 60.8449C316.84 59.7063 319.057 60.0958 320.6 61.7287C322.143 63.3617 322.412 65.5939 321.214 66.7325C320 67.871 317.768 67.4815 316.24 65.8486Z" fill="#EDD9AA"/>
<path d="M324.974 72.9646C322.862 70.7474 322.487 67.6762 324.135 66.1182C325.783 64.5602 328.824 65.0995 330.921 67.3167C333.033 69.5339 333.408 72.6051 331.76 74.1631C330.127 75.7211 327.086 75.1968 324.974 72.9646Z" fill="#EDD9AA"/>
<path d="M323.086 62.6576C322.248 61.7587 322.098 60.5302 322.757 59.901C323.416 59.2718 324.644 59.4966 325.483 60.3804C326.322 61.2793 326.487 62.5078 325.828 63.137C325.154 63.7662 323.94 63.5415 323.086 62.6576Z" fill="#EDD9AA"/>
<path d="M337.288 154.702C338.771 153.024 340.988 152.56 342.216 153.653C343.459 154.762 343.25 157.009 341.767 158.672C340.283 160.35 338.066 160.814 336.838 159.721C335.595 158.627 335.79 156.365 337.288 154.702Z" fill="#EDD9AA"/>
<path d="M330.951 164.02C332.988 161.728 336.014 161.084 337.707 162.582C339.4 164.095 339.13 167.166 337.093 169.443C335.055 171.736 332.044 172.38 330.352 170.882C328.644 169.384 328.914 166.312 330.951 164.02Z" fill="#EDD9AA"/>
<path d="M341.062 161.249C341.871 160.335 343.1 160.08 343.774 160.679C344.448 161.294 344.343 162.522 343.519 163.436C342.71 164.35 341.497 164.62 340.808 164.005C340.134 163.406 340.239 162.163 341.062 161.249Z" fill="#EDD9AA"/>
<path d="M145.484 183.661C144.63 193.953 136.166 199.316 125.815 202.552C116.108 205.578 107.854 193.893 107.854 183.721C107.854 173.548 114.819 164.694 126.264 166.357C136.331 167.811 146.322 173.518 145.484 183.661Z" fill="#EDD9AA"/>
<path d="M144.435 182.972C143.581 193.264 135.117 198.627 124.751 201.863C115.044 204.889 106.79 193.204 106.79 183.031C106.79 172.859 113.756 164.005 125.201 165.668C135.282 167.121 145.274 172.829 144.435 182.972Z" fill="url(#paint14_radial_89_949)"/>
<path d="M133.305 167.841C137.289 170.747 139.836 174.852 139.402 180.17C138.548 190.462 130.084 195.84 119.718 199.061C117.696 199.691 115.748 199.676 113.921 199.181C116.962 201.818 120.737 203.106 124.751 201.848C135.117 198.627 143.581 193.249 144.435 182.957C145.049 175.631 139.971 170.612 133.305 167.841Z" fill="url(#paint15_linear_89_949)"/>
<path d="M111.194 186.282C110.475 186.282 109.861 185.743 109.786 185.009C109.741 184.649 109.711 184.29 109.696 183.945C109.651 183.151 110.251 182.492 111.03 182.447C111.824 182.417 112.483 183.001 112.528 183.78C112.543 184.08 112.573 184.395 112.602 184.709C112.692 185.488 112.123 186.192 111.344 186.282C111.299 186.267 111.239 186.282 111.194 186.282ZM112.752 179.93C113.801 174.372 117.786 171.721 119.119 171.391C119.883 171.196 120.347 170.432 120.152 169.668C119.958 168.904 119.194 168.44 118.43 168.635C115.628 169.339 111.149 173.144 109.966 179.406C109.816 180.17 110.326 180.919 111.104 181.069C111.194 181.084 111.284 181.099 111.374 181.099C112.033 181.099 112.632 180.619 112.752 179.93Z" fill="url(#paint16_radial_89_949)"/>
<path d="M423.318 139.631C422.464 149.923 414 155.286 403.634 158.522C393.927 161.548 385.673 149.863 385.673 139.691C385.673 129.519 392.639 120.665 404.083 122.328C414.165 123.781 424.156 129.489 423.318 139.631Z" fill="#EDD9AA"/>
<path d="M422.269 138.942C421.415 149.234 412.951 154.597 402.585 157.833C392.878 160.859 384.624 149.174 384.624 139.002C384.624 128.829 391.605 119.976 403.035 121.639C413.116 123.092 423.108 128.8 422.269 138.942Z" fill="url(#paint17_radial_89_949)"/>
<path d="M411.139 123.811C415.124 126.717 417.67 130.822 417.236 136.14C416.382 146.432 407.918 151.796 397.552 155.032C395.545 155.661 393.597 155.646 391.755 155.151C394.796 157.788 398.556 159.076 402.585 157.818C412.951 154.597 421.415 149.219 422.269 138.927C422.868 131.601 417.805 126.582 411.139 123.811Z" fill="url(#paint18_linear_89_949)"/>
<path d="M389.028 142.253C388.309 142.253 387.695 141.713 387.62 140.979C387.575 140.62 387.56 140.26 387.53 139.916C387.485 139.137 388.085 138.462 388.864 138.417C389.658 138.387 390.317 138.972 390.362 139.751C390.377 140.05 390.406 140.365 390.436 140.68C390.526 141.459 389.957 142.163 389.178 142.253C389.133 142.253 389.073 142.253 389.028 142.253ZM390.586 135.901C391.65 130.343 395.62 127.691 396.953 127.361C397.717 127.167 398.181 126.403 397.986 125.638C397.807 124.874 397.028 124.41 396.264 124.605C393.462 125.309 388.968 129.114 387.8 135.376C387.65 136.155 388.16 136.889 388.924 137.039C389.013 137.054 389.103 137.069 389.193 137.069C389.867 137.069 390.466 136.59 390.586 135.901Z" fill="url(#paint19_radial_89_949)"/>
<path d="M29.6282 204.38C27.9804 203.66 27.0816 202.087 27.6209 200.874C28.1602 199.661 29.9128 199.256 31.5606 199.975C33.2084 200.694 34.1072 202.267 33.568 203.481C33.0287 204.709 31.261 205.099 29.6282 204.38Z" fill="#EDD9AA"/>
<path d="M38.2867 206.911C36.0397 205.923 34.8113 203.78 35.5303 202.117C36.2644 200.455 38.6761 199.9 40.9082 200.889C43.1552 201.878 44.3985 204.02 43.6645 205.683C42.9454 207.346 40.5337 207.9 38.2867 206.911Z" fill="#EDD9AA"/>
<path d="M33.6877 199.885C32.7889 199.496 32.2946 198.627 32.5792 197.953C32.8788 197.279 33.8376 197.069 34.7513 197.458C35.6501 197.848 36.1445 198.717 35.8598 199.391C35.5602 200.065 34.5865 200.29 33.6877 199.885Z" fill="#EDD9AA"/>
<path d="M113.741 123.451C114.789 124.904 114.76 126.717 113.681 127.496C112.602 128.275 110.88 127.721 109.846 126.253C108.797 124.8 108.827 122.987 109.906 122.208C110.97 121.429 112.692 121.983 113.741 123.451Z" fill="#EDD9AA"/>
<path d="M107.584 116.845C109.007 118.837 108.977 121.309 107.509 122.373C106.026 123.421 103.674 122.672 102.251 120.68C100.813 118.687 100.858 116.215 102.326 115.152C103.794 114.088 106.146 114.852 107.584 116.845Z" fill="#EDD9AA"/>
<path d="M107.959 125.234C108.528 126.028 108.513 127.032 107.929 127.451C107.329 127.871 106.386 127.571 105.816 126.762C105.247 125.953 105.262 124.964 105.846 124.545C106.431 124.125 107.374 124.44 107.959 125.234Z" fill="#EDD9AA"/>
<path d="M28.28 246.791C29.3286 248.245 29.2987 250.057 28.2201 250.836C27.1416 251.615 25.4189 251.061 24.3703 249.593C23.3217 248.14 23.3516 246.327 24.4302 245.548C25.5087 244.784 27.2464 245.338 28.28 246.791Z" fill="#EDD9AA"/>
<path d="M22.1232 240.185C23.5463 242.177 23.5163 244.649 22.0333 245.713C20.5653 246.776 18.1984 246.012 16.7753 244.02C15.3373 242.027 15.3822 239.555 16.8502 238.492C18.3333 237.443 20.7001 238.192 22.1232 240.185Z" fill="#EDD9AA"/>
<path d="M22.4977 248.574C23.067 249.383 23.052 250.372 22.4678 250.791C21.8686 251.211 20.9248 250.911 20.3556 250.102C19.7864 249.308 19.8013 248.304 20.3856 247.885C20.9698 247.48 21.9135 247.78 22.4977 248.574Z" fill="#EDD9AA"/>
<path d="M183.053 204.38C181.406 203.66 180.507 202.087 181.046 200.874C181.585 199.661 183.338 199.256 184.986 199.975C186.634 200.694 187.532 202.267 186.993 203.481C186.469 204.709 184.701 205.099 183.053 204.38Z" fill="#EDD9AA"/>
<path d="M191.727 206.911C189.48 205.923 188.251 203.78 188.971 202.117C189.705 200.455 192.116 199.9 194.363 200.889C196.61 201.878 197.839 204.02 197.12 205.683C196.386 207.346 193.974 207.9 191.727 206.911Z" fill="#EDD9AA"/>
<path d="M187.128 199.885C186.229 199.496 185.735 198.627 186.019 197.953C186.319 197.279 187.278 197.069 188.192 197.458C189.09 197.848 189.585 198.717 189.3 199.391C189 200.065 188.027 200.29 187.128 199.885Z" fill="#EDD9AA"/>
<path d="M142.892 39.976C141.244 39.2569 140.345 37.6839 140.885 36.4704C141.409 35.257 143.177 34.8525 144.824 35.5716C146.472 36.2907 147.371 37.8637 146.832 39.0772C146.292 40.2907 144.54 40.6951 142.892 39.976Z" fill="#EDD9AA"/>
<path d="M151.565 42.5079C149.318 41.5191 148.09 39.3768 148.809 37.7139C149.543 36.051 151.955 35.4967 154.187 36.4855C156.434 37.4742 157.662 39.6166 156.943 41.2795C156.209 42.9424 153.797 43.4967 151.565 42.5079Z" fill="#EDD9AA"/>
<path d="M146.952 35.4817C146.053 35.0922 145.558 34.2233 145.843 33.5492C146.143 32.875 147.101 32.6653 148.015 33.0548C148.914 33.4443 149.408 34.3132 149.124 34.9724C148.824 35.6615 147.85 35.8712 146.952 35.4817Z" fill="#EDD9AA"/>
<path d="M404.892 219.855C403.244 219.136 402.346 217.563 402.885 216.35C403.424 215.136 405.177 214.732 406.825 215.451C408.472 216.17 409.371 217.743 408.832 218.956C408.293 220.185 406.54 220.574 404.892 219.855Z" fill="#EDD9AA"/>
<path d="M413.566 222.387C411.319 221.398 410.075 219.256 410.809 217.593C411.543 215.93 413.94 215.376 416.187 216.365C418.434 217.353 419.662 219.496 418.943 221.159C418.209 222.821 415.798 223.376 413.566 222.387Z" fill="#EDD9AA"/>
<path d="M408.952 215.361C408.053 214.971 407.559 214.102 407.843 213.428C408.143 212.754 409.101 212.544 410.015 212.934C410.914 213.323 411.408 214.192 411.124 214.851C410.824 215.541 409.85 215.765 408.952 215.361Z" fill="#EDD9AA"/>
<path d="M497.334 112.83C495.686 112.11 494.787 110.537 495.326 109.324C495.866 108.11 497.633 107.706 499.266 108.425C500.914 109.144 501.813 110.717 501.274 111.931C500.734 113.144 498.967 113.549 497.334 112.83Z" fill="#EDD9AA"/>
<path d="M505.992 115.361C503.745 114.373 502.517 112.23 503.236 110.567C503.97 108.905 506.382 108.35 508.614 109.339C510.861 110.328 512.089 112.47 511.37 114.133C510.651 115.796 508.239 116.35 505.992 115.361Z" fill="#EDD9AA"/>
<path d="M501.393 108.335C500.494 107.946 500 107.077 500.285 106.403C500.584 105.729 501.543 105.519 502.457 105.908C503.356 106.298 503.85 107.167 503.565 107.826C503.266 108.515 502.292 108.74 501.393 108.335Z" fill="#EDD9AA"/>
<path d="M471.538 44.9498C470.325 46.2831 468.557 46.6277 467.568 45.7438C466.58 44.8449 466.76 43.0472 467.973 41.7288C469.186 40.3955 470.954 40.0509 471.943 40.9348C472.916 41.8187 472.737 43.6165 471.538 44.9498Z" fill="#EDD9AA"/>
<path d="M476.691 37.5341C475.044 39.3618 472.617 39.8412 471.269 38.6128C469.92 37.3843 470.175 34.9274 471.823 33.1147C473.471 31.3019 475.897 30.8076 477.246 32.036C478.594 33.2645 478.339 35.7214 476.691 37.5341Z" fill="#EDD9AA"/>
<path d="M468.572 39.6615C467.913 40.3956 466.939 40.5903 466.385 40.0959C465.846 39.6015 465.951 38.6128 466.61 37.8787C467.269 37.1446 468.243 36.9499 468.782 37.4442C469.321 37.9386 469.231 38.9274 468.572 39.6615Z" fill="#EDD9AA"/>
<defs>
<radialGradient id="paint0_radial_89_949" cx="0" cy="0" r="1" gradientUnits="userSpaceOnUse" gradientTransform="translate(111.492 140.212) scale(95.9136 95.9212)">
<stop stop-color="white"/>
<stop offset="0.2973" stop-color="#FFFDF9"/>
<stop offset="0.7035" stop-color="#FFF8E7"/>
<stop offset="1" stop-color="#FFF3D6"/>
</radialGradient>
<radialGradient id="paint1_radial_89_949" cx="0" cy="0" r="1" gradientUnits="userSpaceOnUse" gradientTransform="translate(441.555 130.687) scale(99.9168 99.9247)">
<stop stop-color="white"/>
<stop offset="0.2973" stop-color="#FFFDF9"/>
<stop offset="0.7035" stop-color="#FFF8E7"/>
<stop offset="1" stop-color="#FFF3D6"/>
</radialGradient>
<radialGradient id="paint2_radial_89_949" cx="0" cy="0" r="1" gradientUnits="userSpaceOnUse" gradientTransform="translate(104.427 77.4854) rotate(-51.0176) scale(9.8769 9.87673)">
<stop stop-color="white"/>
<stop offset="0.2973" stop-color="#FFFDF9"/>
<stop offset="0.7035" stop-color="#FFF8E7"/>
<stop offset="1" stop-color="#FFF3D6"/>
</radialGradient>
<radialGradient id="paint3_radial_89_949" cx="0" cy="0" r="1" gradientUnits="userSpaceOnUse" gradientTransform="translate(461.565 7.97391) rotate(-51.0175) scale(7.1659 7.16578)">
<stop stop-color="white"/>
<stop offset="0.2973" stop-color="#FFFDF9"/>
<stop offset="0.7035" stop-color="#FFF8E7"/>
<stop offset="1" stop-color="#FFF3D6"/>
</radialGradient>
<radialGradient id="paint4_radial_89_949" cx="0" cy="0" r="1" gradientUnits="userSpaceOnUse" gradientTransform="translate(187.831 208.179) scale(18.8215 18.823)">
<stop stop-color="white"/>
<stop offset="0.2973" stop-color="#FFFDF9"/>
<stop offset="0.7035" stop-color="#FFF8E7"/>
<stop offset="1" stop-color="#FFF3D6"/>
</radialGradient>
<radialGradient id="paint5_radial_89_949" cx="0" cy="0" r="1" gradientUnits="userSpaceOnUse" gradientTransform="translate(418.568 49.9522) scale(32.2728 32.2753)">
<stop stop-color="white"/>
<stop offset="0.2973" stop-color="#FFFDF9"/>
<stop offset="0.7035" stop-color="#FFF8E7"/>
<stop offset="1" stop-color="#FFF3D6"/>
</radialGradient>
<radialGradient id="paint6_radial_89_949" cx="0" cy="0" r="1" gradientUnits="userSpaceOnUse" gradientTransform="translate(402.724 230.775) scale(28.5173 28.5195)">
<stop stop-color="white"/>
<stop offset="0.2973" stop-color="#FFFDF9"/>
<stop offset="0.7035" stop-color="#FFF8E7"/>
<stop offset="1" stop-color="#FFF3D6"/>
</radialGradient>
<radialGradient id="paint7_radial_89_949" cx="0" cy="0" r="1" gradientUnits="userSpaceOnUse" gradientTransform="translate(358.512 196.78) scale(18.0434 18.0448)">
<stop stop-color="white"/>
<stop offset="0.2973" stop-color="#FFFDF9"/>
<stop offset="0.7035" stop-color="#FFF8E7"/>
<stop offset="1" stop-color="#FFF3D6"/>
</radialGradient>
<radialGradient id="paint8_radial_89_949" cx="0" cy="0" r="1" gradientUnits="userSpaceOnUse" gradientTransform="translate(140.725 48.01) scale(17.866 17.8675)">
<stop stop-color="white"/>
<stop offset="0.2973" stop-color="#FFFDF9"/>
<stop offset="0.7035" stop-color="#FFF8E7"/>
<stop offset="1" stop-color="#FFF3D6"/>
</radialGradient>
<radialGradient id="paint9_radial_89_949" cx="0" cy="0" r="1" gradientUnits="userSpaceOnUse" gradientTransform="translate(31.8475 234.203) scale(27.2359 27.238)">
<stop stop-color="white"/>
<stop offset="0.2973" stop-color="#FFFDF9"/>
<stop offset="0.7035" stop-color="#FFF8E7"/>
<stop offset="1" stop-color="#FFF3D6"/>
</radialGradient>
<radialGradient id="paint10_radial_89_949" cx="0" cy="0" r="1" gradientUnits="userSpaceOnUse" gradientTransform="translate(259.027 132.132) scale(106.783 103.974)">
<stop stop-color="white"/>
<stop offset="0.2973" stop-color="#FFFDF9"/>
<stop offset="0.7035" stop-color="#FFF8E7"/>
<stop offset="1" stop-color="#FFF3D6"/>
</radialGradient>
<radialGradient id="paint11_radial_89_949" cx="0" cy="0" r="1" gradientUnits="userSpaceOnUse" gradientTransform="translate(238.88 104.048) scale(60.2732 60.278)">
<stop stop-color="#FFD438"/>
<stop offset="1" stop-color="#FF971A"/>
</radialGradient>
<linearGradient id="paint12_linear_89_949" x1="245.467" y1="130.686" x2="304.693" y2="130.686" gradientUnits="userSpaceOnUse">
<stop stop-color="#FFAF30" stop-opacity="0"/>
<stop offset="1" stop-color="#F27500"/>
</linearGradient>
<radialGradient id="paint13_radial_89_949" cx="0" cy="0" r="1" gradientUnits="userSpaceOnUse" gradientTransform="translate(247.43 115.849) scale(14.1011 14.1022)">
<stop stop-color="white"/>
<stop offset="0.2973" stop-color="#FFFDF9"/>
<stop offset="0.7035" stop-color="#FFF8E7"/>
<stop offset="1" stop-color="#FFF3D6"/>
</radialGradient>
<radialGradient id="paint14_radial_89_949" cx="0" cy="0" r="1" gradientUnits="userSpaceOnUse" gradientTransform="translate(110.532 171.346) scale(31.095 31.0975)">
<stop stop-color="#FFD438"/>
<stop offset="1" stop-color="#FF971A"/>
</radialGradient>
<linearGradient id="paint15_linear_89_949" x1="113.929" y1="185.089" x2="144.486" y2="185.089" gradientUnits="userSpaceOnUse">
<stop stop-color="#FFAF30" stop-opacity="0"/>
<stop offset="1" stop-color="#F27500"/>
</linearGradient>
<radialGradient id="paint16_radial_89_949" cx="0" cy="0" r="1" gradientUnits="userSpaceOnUse" gradientTransform="translate(114.942 177.435) scale(7.27563 7.27621)">
<stop stop-color="white"/>
<stop offset="0.2973" stop-color="#FFFDF9"/>
<stop offset="0.7035" stop-color="#FFF8E7"/>
<stop offset="1" stop-color="#FFF3D6"/>
</radialGradient>
<radialGradient id="paint17_radial_89_949" cx="0" cy="0" r="1" gradientUnits="userSpaceOnUse" gradientTransform="translate(388.363 127.319) scale(31.0959 31.0984)">
<stop stop-color="#FFD438"/>
<stop offset="1" stop-color="#FF971A"/>
</radialGradient>
<linearGradient id="paint18_linear_89_949" x1="391.764" y1="141.061" x2="422.318" y2="141.061" gradientUnits="userSpaceOnUse">
<stop stop-color="#FFAF30" stop-opacity="0"/>
<stop offset="1" stop-color="#F27500"/>
</linearGradient>
<radialGradient id="paint19_radial_89_949" cx="0" cy="0" r="1" gradientUnits="userSpaceOnUse" gradientTransform="translate(392.776 133.406) scale(7.27475 7.27531)">
<stop stop-color="white"/>
<stop offset="0.2973" stop-color="#FFFDF9"/>
<stop offset="0.7035" stop-color="#FFF8E7"/>
<stop offset="1" stop-color="#FFF3D6"/>
</radialGradient>
</defs>
</svg>
