<svg width="40" height="40" viewBox="0 0 40 40" fill="none" xmlns="http://www.w3.org/2000/svg">
<rect width="40" height="40" fill="white"/>
<path d="M20 10.1741C23.1906 10.1741 23.5859 10.1741 24.8565 10.2306C26.0141 10.2871 26.6635 10.4847 27.0871 10.6541C27.6518 10.88 28.0471 11.1341 28.4706 11.5576C28.8941 11.9812 29.1482 12.3765 29.3741 12.9412C29.5435 13.3647 29.7412 13.9859 29.7977 15.1718C29.8541 16.4424 29.8541 16.8094 29.8541 20.0282C29.8541 23.2188 29.8541 23.6141 29.7977 24.8847C29.7412 26.0424 29.5435 26.6918 29.3741 27.1153C29.1482 27.68 28.8941 28.0753 28.4706 28.4988C28.0471 28.9224 27.6518 29.1765 27.0871 29.4024C26.6635 29.5718 26.0424 29.7694 24.8565 29.8259C23.5859 29.8824 23.2188 29.8824 20 29.8824C16.8094 29.8824 16.4141 29.8824 15.1435 29.8259C13.9859 29.7694 13.3365 29.5718 12.9129 29.4024C12.3482 29.1765 11.9529 28.9224 11.5294 28.4988C11.1059 28.0753 10.8518 27.68 10.6259 27.1153C10.4565 26.6918 10.2588 26.0706 10.2023 24.8847C10.1459 23.6141 10.1459 23.2471 10.1459 20.0282C10.1459 16.8376 10.1459 16.4424 10.2023 15.1718C10.2588 14.0141 10.4565 13.3647 10.6259 12.9412C10.8518 12.3765 11.1059 11.9812 11.5294 11.5576C11.9529 11.1341 12.3482 10.88 12.9129 10.6541C13.3365 10.4847 13.9576 10.2871 15.1435 10.2306C16.4141 10.1741 16.8094 10.1741 20 10.1741ZM20 8C16.7529 8 16.3294 8 15.0588 8.08471C13.7882 8.14118 12.9129 8.33882 12.1506 8.64941C11.36 8.96 10.6824 9.3553 10.0329 10.0329C9.3553 10.7106 8.96 11.36 8.64941 12.1506C8.33882 12.9129 8.14117 13.7882 8.0847 15.0588C8.02823 16.3294 8 16.7529 8 20C8 23.2471 8 23.6706 8.0847 24.9412C8.14117 26.2118 8.33882 27.0871 8.64941 27.8494C8.96 28.64 9.3553 29.3177 10.0329 29.9671C10.7106 30.6447 11.36 31.04 12.1506 31.3506C12.9129 31.6612 13.7882 31.8588 15.0588 31.9153C16.3294 31.9718 16.7529 32 20 32C23.2471 32 23.6706 32 24.9412 31.9153C26.2118 31.8588 27.0871 31.6612 27.8494 31.3506C28.64 31.04 29.3176 30.6447 29.9671 29.9671C30.6447 29.2894 31.04 28.64 31.3506 27.8494C31.6612 27.0871 31.8588 26.2118 31.9153 24.9412C31.9718 23.6706 32 23.2471 32 20C32 16.7529 32 16.3294 31.9153 15.0588C31.8588 13.7882 31.6612 12.9129 31.3506 12.1506C31.04 11.36 30.6447 10.6824 29.9671 10.0329C29.2894 9.3553 28.64 8.96 27.8494 8.64941C27.0871 8.33882 26.2118 8.14118 24.9412 8.08471C23.6706 8.02824 23.2471 8 20 8Z" fill="#101010"/>
<path d="M20 13.8447C16.5835 13.8447 13.8447 16.6118 13.8447 20C13.8447 23.4165 16.6118 26.1553 20 26.1553C23.4165 26.1553 26.1553 23.3883 26.1553 20C26.1553 16.6118 23.4165 13.8447 20 13.8447ZM20 24.0094C17.7977 24.0094 15.9906 22.2306 15.9906 20C15.9906 17.7694 17.7694 15.9906 20 15.9906C22.2306 15.9906 24.0094 17.7694 24.0094 20C24.0094 22.2306 22.2024 24.0094 20 24.0094Z" fill="#101010"/>
<path d="M26.4092 15.0587C27.2045 15.0587 27.8492 14.414 27.8492 13.6187C27.8492 12.8234 27.2045 12.1787 26.4092 12.1787C25.614 12.1787 24.9692 12.8234 24.9692 13.6187C24.9692 14.414 25.614 15.0587 26.4092 15.0587Z" fill="#101010"/>
</svg>
