<svg width="692" height="657" viewBox="0 0 692 657" fill="none" xmlns="http://www.w3.org/2000/svg">
<path d="M607.662 558.027L562.857 602.835L510.188 567.794L572.624 505.353L607.662 558.027Z" fill="#C1CADE"/>
<path d="M441.07 610.161C279.645 678.415 93.474 602.88 25.2251 441.443C-43.0238 280.021 32.5054 93.8345 193.93 25.5802C355.354 -42.6741 541.526 32.861 609.775 194.283C678.024 355.721 602.494 541.907 441.07 610.161Z" fill="#334159"/>
<path d="M435.722 597.502C281.293 662.79 103.181 590.536 37.8982 436.095C-27.3996 281.669 44.8639 103.542 199.278 38.2393C353.707 -27.0487 531.819 45.2055 597.117 199.647C662.399 354.073 590.151 532.199 435.722 597.502Z" fill="#3A4966"/>
<path d="M178.081 435.286C112.798 280.845 185.047 102.718 339.476 37.4153C354.74 30.9584 370.229 25.8498 385.824 22.0446C325.604 8.08215 260.576 12.3218 199.278 38.2393C44.8639 103.542 -27.3996 281.669 37.8982 436.095C96.7397 575.27 247.199 647.704 389.389 612.873C297.876 591.659 217.463 528.409 178.081 435.286Z" fill="#435375"/>
<path d="M419.079 552.229C292.049 605.951 145.514 546.491 91.8111 419.451C38.1079 292.41 97.5485 145.879 224.579 92.1566C351.609 38.449 498.144 97.8794 551.847 224.935C605.55 351.975 546.11 498.506 419.079 552.229Z" fill="#263247"/>
<path d="M414.75 547.914C287.72 601.622 141.185 542.176 87.482 415.136C33.7637 288.096 93.2194 141.55 220.25 87.842C347.28 34.1344 493.815 93.5648 547.518 220.62C601.236 347.661 541.796 494.192 414.75 547.914Z" fill="#33425E"/>
<path d="M405.133 63.932C402.511 66.5537 398.587 67.6623 394.797 66.4938C390.273 65.1005 385.644 63.8122 381.06 62.6736C375.532 61.2953 372.177 55.6924 373.555 50.1643C374.933 44.6362 380.536 41.2804 386.063 42.6587C391.007 43.8872 395.98 45.2804 400.864 46.7785C406.301 48.4564 409.357 54.2242 407.679 59.6624C407.17 61.3403 406.286 62.7934 405.133 63.932ZM361.556 47.9171C362.26 42.2692 358.26 37.1157 352.613 36.3966C303.374 30.2094 253.041 37.2056 207.067 56.6511C201.824 58.8684 199.368 64.9208 201.585 70.1642C203.802 75.4076 209.854 77.8645 215.097 75.6473C257.73 57.6249 304.392 51.1381 350.036 56.8759C353.332 57.2804 356.448 56.0968 358.62 53.9246C360.178 52.3515 361.256 50.2841 361.556 47.9171Z" fill="#C1CADE"/>
<path d="M876.224 811.643C857.184 799.523 838.639 792.153 807.091 760.602C796.066 749.576 765.282 691.614 745.793 672.123C726.304 652.633 621.04 547.36 615.647 541.967C610.254 536.573 604.127 535.794 599.888 540.019C595.664 544.244 572.37 567.54 572.37 567.54C572.37 567.54 549.076 590.835 544.851 595.06C540.612 599.3 541.406 605.427 546.799 610.82C552.177 616.199 657.456 721.486 676.945 740.977C696.434 760.467 754.392 791.254 765.417 802.295C796.965 833.845 804.335 852.392 816.454 871.433C828.573 890.474 872.164 952.032 905.315 947.612C924.22 945.096 935.844 931.058 935.844 931.058C935.844 931.058 949.881 919.433 952.397 900.527C956.831 867.358 895.278 823.763 876.224 811.643Z" fill="#DEB193"/>
<path d="M568.01 607.045C561.135 601.337 553.09 597.712 543.923 596.154C543.578 596.603 543.293 597.068 543.054 597.547C552.221 599.015 560.236 602.551 567.052 608.199C579.919 618.88 587.35 636.243 591.035 655.045C591.649 655.659 592.278 656.288 592.892 656.902C589.297 636.977 581.642 618.371 568.01 607.045Z" fill="#BF9273"/>
<path d="M635.99 696.288C636.229 697.756 636.469 699.239 636.709 700.722C637.323 701.337 637.922 701.936 638.521 702.535C638.162 700.363 637.817 698.191 637.473 696.048C635.016 680.708 632.694 666.206 627.781 655.314C616.186 629.637 582.256 596.888 560.475 579.45C560.116 579.809 559.771 580.154 559.412 580.513C581.028 597.802 614.883 630.401 626.402 655.929C631.241 666.655 633.548 681.052 635.99 696.288Z" fill="#BF9273"/>
<path d="M686.322 715.194C679.237 692.588 672.556 671.224 664.721 654.311C653.172 629.382 630.387 610.775 606.269 591.09C595.828 582.566 585.178 573.832 575.441 564.498C575.051 564.888 574.707 565.233 574.377 565.562C584.159 574.94 594.855 583.704 605.326 592.259C629.309 611.839 651.958 630.341 663.358 654.955C671.148 671.779 677.829 693.097 684.899 715.659C689.348 729.861 693.857 744.288 698.831 758.19C699.535 758.67 700.239 759.164 700.958 759.643C695.715 745.142 690.981 730.056 686.322 715.194Z" fill="#BF9273"/>
<path d="M592.578 547.33C592.233 547.675 591.874 548.034 591.514 548.394C599.648 556.184 607.947 563.959 616.606 572.049C633.788 588.124 651.554 604.753 668.481 622.056C682.742 636.618 695.955 676.348 708.733 714.745C716.432 737.906 724.297 761.531 732.476 779.898C733.24 780.377 734.004 780.857 734.753 781.321C726.289 762.789 718.125 738.28 710.141 714.28C697.318 675.704 684.045 635.824 669.545 621.007C652.587 603.674 634.806 587.045 617.609 570.955C608.996 562.88 600.712 555.105 592.578 547.33Z" fill="#BF9273"/>
<path d="M905.315 947.597C921.673 945.41 932.579 934.624 935.215 931.747L571.696 568.214C567.861 572.049 548.656 591.255 544.851 595.06C540.612 599.3 541.406 605.427 546.799 610.82C552.177 616.199 657.456 721.486 676.945 740.977C696.434 760.467 754.392 791.254 765.417 802.295C796.965 833.845 804.335 852.392 816.454 871.433C828.573 890.474 872.164 952.032 905.315 947.597Z" fill="#EDD1C0"/>
</svg>
